<svg width="35" height="15" viewBox="0 0 35 15" fill="none" xmlns="http://www.w3.org/2000/svg">
<circle cx="4.5" cy="7.5" r="4.5" fill="#FC354C"/>
<path d="M11.9588 12V3.27273H15.0696C15.7457 3.27273 16.3068 3.3892 16.7528 3.62216C17.2017 3.85511 17.5369 4.17756 17.7585 4.58949C17.9801 4.99858 18.0909 5.47159 18.0909 6.00852C18.0909 6.54261 17.9787 7.01278 17.7543 7.41903C17.5327 7.82244 17.1974 8.13636 16.7486 8.3608C16.3026 8.58523 15.7415 8.69744 15.0653 8.69744H12.7088V7.56392H14.946C15.3722 7.56392 15.7188 7.50284 15.9858 7.38068C16.2557 7.25852 16.4531 7.08097 16.5781 6.84801C16.7031 6.61506 16.7656 6.33523 16.7656 6.00852C16.7656 5.67898 16.7017 5.39347 16.5739 5.15199C16.4489 4.91051 16.2514 4.72585 15.9815 4.59801C15.7145 4.46733 15.3636 4.40199 14.929 4.40199H13.2756V12H11.9588ZM16.267 8.0625L18.4233 12H16.9233L14.8097 8.0625H16.267ZM19.6932 12V3.27273H25.1648V4.40625H21.0099V7.06534H24.8793V8.1946H21.0099V10.8665H25.2159V12H19.6932ZM34.1722 6.1108H32.8427C32.7915 5.8267 32.6964 5.5767 32.5572 5.3608C32.418 5.14489 32.2475 4.96165 32.0458 4.81108C31.8441 4.66051 31.6183 4.54687 31.3683 4.47017C31.1211 4.39347 30.8583 4.35511 30.5799 4.35511C30.0771 4.35511 29.6268 4.48153 29.229 4.73438C28.8342 4.98722 28.5217 5.35795 28.2915 5.84659C28.0643 6.33523 27.9506 6.93182 27.9506 7.63636C27.9506 8.34659 28.0643 8.94602 28.2915 9.43466C28.5217 9.9233 28.8356 10.2926 29.2333 10.5426C29.631 10.7926 30.0785 10.9176 30.5756 10.9176C30.8512 10.9176 31.1126 10.8807 31.3597 10.8068C31.6097 10.7301 31.8356 10.6179 32.0373 10.4702C32.239 10.3224 32.4094 10.142 32.5487 9.92898C32.6907 9.71307 32.7887 9.46591 32.8427 9.1875L34.1722 9.19176C34.1012 9.62074 33.9634 10.0156 33.7589 10.3764C33.5572 10.7344 33.2972 11.044 32.979 11.3054C32.6637 11.5639 32.3029 11.7642 31.8967 11.9062C31.4904 12.0483 31.0472 12.1193 30.5671 12.1193C29.8114 12.1193 29.1381 11.9403 28.5472 11.5824C27.9563 11.2216 27.4904 10.706 27.1495 10.0355C26.8114 9.36506 26.6424 8.56534 26.6424 7.63636C26.6424 6.70455 26.8129 5.90483 27.1538 5.23722C27.4947 4.56676 27.9606 4.05256 28.5515 3.6946C29.1424 3.33381 29.8143 3.15341 30.5671 3.15341C31.0302 3.15341 31.462 3.22017 31.8626 3.35369C32.266 3.48437 32.6282 3.67756 32.9492 3.93324C33.2702 4.18608 33.5359 4.49574 33.7461 4.86222C33.9563 5.22585 34.0984 5.64205 34.1722 6.1108Z" fill="black"/>
</svg>
